<?xml version="1.0" standalone="no"?>
<!DOCTYPE svg PUBLIC "-//W3C//DTD SVG 20010904//EN"
 "http://www.w3.org/TR/2001/REC-SVG-20010904/DTD/svg10.dtd">
<svg version="1.0" xmlns="http://www.w3.org/2000/svg"
 width="650.000000pt" height="751.000000pt" viewBox="0 0 650.000000 751.000000"
 preserveAspectRatio="xMidYMid meet">

<g transform="translate(0.000000,751.000000) scale(0.100000,-0.100000)"
fill="#000000" stroke="none">
<path d="M2965 6419 c-33 -5 -70 -7 -82 -4 -11 3 -96 -13 -188 -35 -92 -22
-177 -38 -189 -35 -11 2 -14 2 -6 -2 9 -4 -4 -13 -39 -25 -30 -10 -56 -16 -59
-14 -2 3 15 10 38 17 24 7 38 15 33 16 -5 2 -59 -14 -119 -36 -914 -328 -1533
-1088 -1660 -2036 -19 -146 -22 -440 -4 -585 14 -125 54 -322 70 -347 10 -17
11 -16 6 2 -85 341 -60 811 63 1200 108 342 301 666 556 933 208 218 427 378
710 518 324 159 642 243 1032 270 98 6 104 6 120 -15 20 -24 53 -20 53 6 0 12
16 13 98 8 549 -37 1056 -228 1462 -552 481 -385 799 -916 899 -1504 84 -492
17 -966 -196 -1399 -80 -161 -79 -158 -65 -145 22 20 142 264 187 379 46 118
122 397 143 526 50 303 36 658 -38 956 -167 680 -595 1245 -1205 1592 -129 73
-286 144 -401 182 -54 18 -108 36 -119 41 -11 4 -40 11 -65 15 -25 3 -54 11
-64 16 -10 6 -37 12 -60 14 -23 1 -52 6 -66 9 -116 28 -216 37 -490 40 -162 2
-322 -1 -355 -6z m-585 -128 c-8 -5 -26 -11 -40 -15 -21 -5 -20 -3 5 9 32 15
60 20 35 6z m-80 -31 c-8 -5 -19 -10 -25 -10 -5 0 -3 5 5 10 8 5 20 10 25 10
6 0 3 -5 -5 -10z m-50 -20 c-8 -5 -19 -10 -25 -10 -5 0 -3 5 5 10 8 5 20 10
25 10 6 0 3 -5 -5 -10z m-204 -95 c-11 -8 -25 -15 -30 -15 -6 1 0 7 14 15 32
19 40 18 16 0z"/>
<path d="M3180 6240 c0 -5 3 -10 8 -11 4 0 17 -2 29 -3 14 -2 19 2 16 11 -6
15 -53 18 -53 3z"/>
<path d="M3019 6229 c-10 -6 -4 -9 19 -9 17 0 32 2 32 4 0 9 -39 13 -51 5z"/>
<path d="M3100 6230 c0 -5 9 -10 20 -10 11 0 20 5 20 10 0 6 -9 10 -20 10 -11
0 -20 -4 -20 -10z"/>
<path d="M3318 6227 c-12 -4 -18 -10 -15 -13 3 -3 14 -1 25 5 10 5 27 8 38 5
11 -3 30 -1 44 4 21 8 17 10 -23 9 -27 -1 -58 -5 -69 -10z"/>
<path d="M2862 6217 c-72 -10 -75 -22 -4 -19 71 3 122 13 122 23 0 10 -20 9
-118 -4z"/>
<path d="M3453 6223 c9 -2 25 -2 35 0 9 3 1 5 -18 5 -19 0 -27 -2 -17 -5z"/>
<path d="M3553 6218 c15 -5 27 -15 27 -20 0 -6 2 -9 5 -6 13 13 -9 38 -34 37
l-26 -1 28 -10z"/>
<path d="M3630 6210 c20 -13 43 -13 35 0 -3 6 -16 10 -28 10 -18 0 -19 -2 -7
-10z"/>
<path d="M3690 6199 c0 -5 9 -9 20 -9 11 0 20 2 20 4 0 2 -9 6 -20 9 -11 3
-20 1 -20 -4z"/>
<path d="M2753 6193 c9 -2 17 -9 17 -14 0 -6 5 -7 10 -4 19 12 10 25 -17 24
-17 -1 -21 -3 -10 -6z"/>
<path d="M3785 6180 c3 -5 13 -10 21 -10 8 0 14 5 14 10 0 6 -9 10 -21 10 -11
0 -17 -4 -14 -10z"/>
<path d="M3830 6171 c0 -5 5 -13 10 -16 6 -3 10 -2 10 4 0 5 -4 13 -10 16 -5
3 -10 2 -10 -4z"/>
<path d="M2598 6163 c6 -2 18 -2 25 0 6 3 1 5 -13 5 -14 0 -19 -2 -12 -5z"/>
<path d="M3890 6159 c0 -5 5 -7 10 -4 6 3 10 8 10 11 0 2 -4 4 -10 4 -5 0 -10
-5 -10 -11z"/>
<path d="M3955 6140 c4 -6 11 -8 16 -5 14 9 11 15 -7 15 -8 0 -12 -5 -9 -10z"/>
<path d="M3990 6129 c0 -5 5 -7 10 -4 6 3 10 8 10 11 0 2 -4 4 -10 4 -5 0 -10
-5 -10 -11z"/>
<path d="M4127 6089 c7 -7 15 -10 18 -7 3 3 -2 9 -12 12 -14 6 -15 5 -6 -5z"/>
<path d="M4735 4640 c-3 -6 1 -7 9 -4 18 7 21 14 7 14 -6 0 -13 -4 -16 -10z"/>
<path d="M4672 4603 c-24 -14 -41 -28 -38 -30 3 -3 19 5 35 17 17 11 35 19 39
16 5 -3 9 1 9 9 0 8 -1 15 -1 15 -1 -1 -20 -12 -44 -27z"/>
<path d="M2570 4246 c0 -2 14 -14 30 -26 17 -12 30 -19 30 -16 0 2 -13 14 -30
26 -16 12 -30 19 -30 16z"/>
<path d="M2672 4174 c4 -5 28 -25 54 -44 26 -18 45 -29 42 -24 -4 5 -28 25
-54 44 -26 18 -45 29 -42 24z"/>
<path d="M353 4095 c0 -27 2 -38 4 -22 2 15 2 37 0 50 -2 12 -4 0 -4 -28z"/>
<path d="M2780 4096 c0 -2 8 -10 18 -17 15 -13 16 -12 3 4 -13 16 -21 21 -21
13z"/>
<path d="M2844 4046 c16 -13 57 -43 90 -66 34 -23 48 -30 32 -16 -16 13 -57
43 -90 66 -34 23 -48 30 -32 16z"/>
<path d="M341 3910 c-2 -165 35 -454 85 -651 206 -823 796 -1533 1579 -1900
59 -27 109 -48 111 -46 2 2 -46 27 -106 55 -194 92 -374 207 -575 366 -119 94
-354 327 -448 446 -180 225 -363 548 -455 800 -110 305 -149 500 -181 910 l-8
105 -2 -85z"/>
<path d="M3200 3955 c-7 -8 -19 -15 -27 -15 -11 0 -12 -9 -8 -37 10 -55 34
-105 49 -100 7 3 19 1 27 -5 12 -8 12 -9 -1 -5 -15 4 -38 -20 -60 -63 -10 -20
-10 -23 0 -13 8 7 31 10 59 7 28 -3 56 0 70 8 28 15 110 143 85 134 -8 -3 -18
-6 -20 -6 -2 0 -4 -10 -4 -21 0 -12 -16 -37 -36 -55 -28 -27 -44 -34 -74 -34
-38 0 -60 13 -41 24 5 4 12 2 15 -2 7 -11 56 -3 74 11 7 5 11 15 9 21 -2 6 4
22 14 35 11 13 19 33 19 43 0 19 -1 19 -18 -3 -16 -19 -27 -22 -72 -20 -30 1
-59 6 -67 12 -20 17 -16 50 9 76 12 13 19 23 16 23 -3 0 -11 -7 -18 -15z m85
-141 c-19 -16 -19 -16 5 -10 20 6 21 5 9 -3 -12 -8 -25 -6 -48 5 -17 8 -31 17
-31 20 0 2 19 4 43 4 40 -1 41 -1 22 -16z"/>
<path d="M3000 3936 c0 -2 23 -21 51 -42 28 -20 55 -46 59 -58 9 -21 9 -21 9
1 1 16 -15 33 -59 63 -33 22 -60 39 -60 36z"/>
<path d="M6183 3875 c0 -33 2 -45 4 -27 2 18 2 45 0 60 -2 15 -4 0 -4 -33z"/>
<path d="M3147 3791 c-4 -17 -3 -21 5 -13 5 5 8 16 6 23 -3 8 -7 3 -11 -10z"/>
<path d="M6170 3751 c0 -28 -7 -103 -15 -168 -80 -615 -372 -1201 -820 -1648
-208 -208 -425 -370 -695 -517 -129 -70 -157 -92 -47 -37 285 144 523 315 748
539 151 151 198 203 274 305 284 382 461 795 534 1244 22 131 38 331 27 331
-3 0 -6 -22 -6 -49z"/>
<path d="M3359 3743 c-13 -16 -12 -17 4 -4 16 13 21 21 13 21 -2 0 -10 -8 -17
-17z"/>
<path d="M870 2995 c0 -5 5 -17 10 -25 5 -8 10 -10 10 -5 0 6 -5 17 -10 25 -5
8 -10 11 -10 5z"/>
<path d="M890 2941 c0 -6 4 -13 10 -16 6 -3 7 1 4 9 -7 18 -14 21 -14 7z"/>
<path d="M910 2906 c0 -11 30 -66 36 -66 2 0 -3 15 -12 33 -19 36 -24 44 -24
33z"/>
<path d="M950 2826 c0 -11 40 -86 45 -86 3 0 -4 19 -16 43 -23 45 -29 54 -29
43z"/>
<path d="M3082 2750 c0 -14 2 -19 5 -12 2 6 2 18 0 25 -3 6 -5 1 -5 -13z"/>
<path d="M1021 2695 c12 -22 26 -44 32 -50 15 -16 -20 48 -38 70 -9 11 -7 2 6
-20z"/>
<path d="M3083 2610 c0 -41 2 -58 4 -37 2 20 2 54 0 75 -2 20 -4 3 -4 -38z"/>
<path d="M5424 2555 c-31 -47 -88 -124 -125 -170 -66 -82 -85 -114 -33 -57 48
53 232 312 221 312 -2 0 -31 -38 -63 -85z"/>
<path d="M3160 2600 c0 -28 2 -30 43 -31 23 -1 47 0 52 1 6 2 31 2 58 2 39 -2
47 1 47 16 0 10 6 24 13 31 10 10 6 11 -18 5 -16 -4 -36 -11 -42 -17 -9 -7
-13 -5 -13 7 0 9 -4 16 -10 16 -5 0 -10 -7 -10 -16 0 -13 -3 -14 -15 -4 -18
15 -45 6 -45 -15 0 -9 -5 -13 -10 -10 -8 5 -7 12 2 23 11 13 10 15 -9 10 -13
-4 -23 -2 -23 3 0 5 -4 9 -10 9 -5 0 -10 -13 -10 -30z m180 -10 c0 -5 -4 -10
-10 -10 -5 0 -10 5 -10 10 0 6 5 10 10 10 6 0 10 -4 10 -10z"/>
<path d="M551 2618 c-1 -12 61 -149 66 -145 2 2 -12 37 -31 78 -19 41 -35 71
-35 67z"/>
<path d="M3432 2590 c0 -14 2 -19 5 -12 2 6 2 18 0 25 -3 6 -5 1 -5 -13z"/>
<path d="M1109 2553 c6 -10 22 -31 36 -48 22 -25 22 -23 -5 18 -30 45 -51 66
-31 30z"/>
<path d="M3080 2485 c0 -14 4 -25 9 -25 4 0 6 11 3 25 -2 14 -6 25 -8 25 -2 0
-4 -11 -4 -25z"/>
<path d="M3430 2481 c0 -6 -21 -12 -47 -14 l-48 -3 53 -2 c40 -2 52 1 52 13 0
8 -2 15 -5 15 -3 0 -5 -4 -5 -9z"/>
<path d="M3193 2463 c26 -2 68 -2 95 0 26 2 4 3 -48 3 -52 0 -74 -1 -47 -3z"/>
<path d="M1208 2415 c11 -16 42 -52 67 -80 46 -49 46 -48 -6 15 -63 78 -90
106 -61 65z"/>
<path d="M640 2418 c0 -16 104 -196 175 -303 471 -708 1226 -1153 2135 -1256
135 -16 495 -15 630 0 604 70 1097 269 1540 620 117 92 322 297 413 411 75 94
151 200 144 200 -3 0 -22 -24 -43 -52 -177 -249 -444 -509 -688 -672 -394
-263 -787 -413 -1266 -482 -149 -21 -546 -30 -690 -15 -316 34 -645 113 -859
207 -29 13 -57 24 -61 24 -16 0 -223 102 -325 161 -331 187 -598 424 -834 739
-54 72 -127 180 -162 240 -100 171 -108 186 -109 178z"/>
<path d="M1405 2190 c44 -44 82 -80 85 -80 2 0 -31 36 -75 80 -44 44 -82 80
-85 80 -2 0 31 -36 75 -80z"/>
<path d="M5105 2169 c-49 -50 -123 -118 -162 -151 -84 -70 -98 -90 -20 -28
114 91 298 271 275 270 -2 0 -43 -41 -93 -91z"/>
<path d="M5734 2188 c-4 -7 -14 -24 -22 -38 -14 -24 -13 -24 3 -5 20 24 37 55
31 55 -3 0 -8 -6 -12 -12z"/>
<path d="M1535 2070 c21 -22 41 -40 44 -40 3 0 -13 18 -34 40 -21 22 -41 40
-44 40 -3 0 13 -18 34 -40z"/>
<path d="M1605 2010 c10 -11 20 -20 23 -20 3 0 -3 9 -13 20 -10 11 -20 20 -23
20 -3 0 3 -9 13 -20z"/>
<path d="M1644 1982 c8 -13 66 -56 66 -49 0 3 -17 17 -37 33 -20 15 -33 23
-29 16z"/>
<path d="M4815 1914 l-30 -26 33 22 c17 12 32 23 32 26 0 7 -4 5 -35 -22z"/>
<path d="M4749 1869 l-24 -20 28 17 c15 9 27 18 27 20 0 8 -8 4 -31 -17z"/>
<path d="M4683 1829 c-35 -22 -46 -37 -15 -20 22 13 58 40 52 41 -3 0 -20 -10
-37 -21z"/>
<path d="M4460 1330 c-19 -11 -30 -19 -25 -19 6 0 26 8 45 19 19 11 31 19 25
19 -5 0 -26 -8 -45 -19z"/>
<path d="M2165 1291 c22 -10 51 -21 65 -25 14 -3 7 2 -15 13 -22 10 -51 21
-65 25 -14 3 -7 -2 15 -13z"/>
<path d="M4390 1300 c-8 -5 -10 -10 -5 -10 6 0 17 5 25 10 8 5 11 10 5 10 -5
0 -17 -5 -25 -10z"/>
<path d="M4340 1280 c-8 -5 -10 -10 -5 -10 6 0 17 5 25 10 8 5 11 10 5 10 -5
0 -17 -5 -25 -10z"/>
<path d="M4260 1250 c-8 -5 -10 -10 -5 -10 6 0 17 5 25 10 8 5 11 10 5 10 -5
0 -17 -5 -25 -10z"/>
<path d="M2390 1210 c8 -5 20 -10 25 -10 6 0 3 5 -5 10 -8 5 -19 10 -25 10 -5
0 -3 -5 5 -10z"/>
</g>
</svg>
