<?xml version="1.0" standalone="no"?>
<!DOCTYPE svg PUBLIC "-//W3C//DTD SVG 20010904//EN"
 "http://www.w3.org/TR/2001/REC-SVG-20010904/DTD/svg10.dtd">
<svg version="1.0" xmlns="http://www.w3.org/2000/svg"
 width="752.000000pt" height="651.000000pt" viewBox="0 0 752.000000 651.000000"
 preserveAspectRatio="xMidYMid meet">

<g transform="translate(0.000000,651.000000) scale(0.100000,-0.100000)"
fill="#000000" stroke="none">
<path d="M3010 6263 c-368 -36 -670 -150 -961 -364 -113 -83 -319 -293 -401
-409 -139 -197 -260 -475 -307 -706 -19 -94 -43 -305 -35 -313 1 -2 -29 -28
-69 -59 -313 -241 -529 -543 -648 -903 -76 -231 -100 -420 -87 -689 34 -761
556 -1430 1298 -1665 215 -68 472 -96 692 -77 140 12 288 39 396 72 63 20 96
20 1972 20 1334 0 1916 3 1938 11 17 6 39 23 49 37 17 26 18 92 18 1478 0
1177 -2 1456 -13 1475 -30 57 17 54 -951 57 l-894 2 7 98 c14 192 -23 459 -92
667 -47 142 -164 374 -249 495 -86 121 -311 346 -428 428 -278 196 -576 308
-904 341 -97 10 -251 12 -331 4z m290 -148 c170 -18 267 -37 400 -81 475 -157
878 -539 1052 -999 34 -88 105 -353 107 -395 0 -8 3 -78 7 -155 4 -78 4 -167
0 -198 l-7 -57 -145 0 -144 0 1 144 c0 153 -13 285 -36 377 -75 291 -218 527
-431 711 -265 229 -528 339 -850 355 -130 6 -131 6 -147 -18 -22 -31 -21 -61
1 -89 16 -20 32 -24 123 -31 462 -33 853 -289 1060 -696 51 -100 98 -239 120
-353 14 -71 18 -384 5 -397 -4 -4 -87 -7 -184 -7 -97 1 -261 2 -364 3 -162 1
-188 3 -188 16 0 32 -44 101 -100 157 -68 68 -167 119 -276 144 l-74 16 0 195
0 194 23 -6 c52 -15 132 -63 158 -95 17 -20 33 -56 38 -85 5 -27 17 -55 27
-62 27 -20 78 -16 99 7 24 26 16 119 -15 179 -46 90 -158 169 -276 194 l-54
11 0 118 c0 135 -11 158 -74 158 -56 0 -66 -24 -66 -162 l0 -118 -25 0 c-32 0
-130 -37 -177 -66 -86 -54 -158 -159 -158 -231 0 -17 -4 -34 -9 -37 -5 -3 -33
-1 -62 4 -97 18 -294 27 -427 19 -232 -14 -463 -73 -680 -175 -53 -24 -96 -43
-98 -42 -1 2 4 46 12 98 77 548 429 1034 926 1282 234 117 432 166 753 186 11
1 81 -5 155 -13z m-210 -1327 c0 -138 -1 -150 -17 -145 -68 20 -188 68 -195
79 -23 38 5 113 61 159 37 30 130 71 144 62 4 -2 7 -72 7 -155z m-533 -163
c330 -44 613 -164 876 -374 114 -90 279 -273 352 -391 15 -25 31 -47 34 -50
16 -13 113 -227 145 -319 134 -386 128 -803 -19 -1183 -196 -508 -650 -909
-1174 -1038 -204 -50 -461 -66 -650 -40 -628 86 -1163 517 -1378 1110 -77 214
-108 412 -100 643 6 171 23 285 68 436 184 626 739 1108 1379 1200 41 6 86 13
100 15 66 9 261 4 367 -9z m4163 -1925 l0 -1380 -1710 0 c-940 0 -1710 2
-1710 4 0 2 16 13 36 25 l35 21 1579 0 1580 0 32 29 33 29 3 1254 c2 1179 1
1255 -15 1288 -10 19 -29 40 -43 47 -20 10 -313 13 -1361 13 l-1336 0 -11 25
-12 25 1450 0 1450 0 0 -1380z m-270 1 l0 -1180 -132 -3 c-73 -2 -721 -1
-1440 2 l-1307 5 51 43 50 42 1189 0 1189 0 0 38 c0 22 12 62 28 93 36 71 89
108 165 116 l57 6 0 833 0 834 -25 0 c-13 0 -48 9 -78 20 -83 31 -135 98 -144
186 l-6 54 -1024 2 -1025 3 -25 43 -25 42 1251 0 1251 0 0 -1179z m-1740 939
c28 -28 26 -75 -5 -105 -19 -20 -34 -25 -77 -25 -29 0 -82 -7 -118 -16 -76
-18 -104 -13 -126 21 -22 33 -12 88 19 103 44 23 134 41 210 41 64 1 80 -2 97
-19z m326 -1 c112 -24 213 -63 298 -116 78 -48 75 -45 167 -132 137 -129 223
-276 270 -461 34 -133 34 -345 0 -470 -72 -272 -254 -496 -501 -620 -164 -82
-287 -106 -490 -97 -137 7 -199 20 -318 71 -139 58 -265 152 -362 270 l-57 69
24 61 c14 34 30 72 35 86 l9 25 24 -40 c241 -403 770 -522 1157 -261 155 104
269 257 325 434 30 94 42 295 24 382 -58 276 -232 498 -476 605 -74 33 -211
65 -276 65 -92 0 -126 26 -121 95 4 58 100 71 268 34z m-742 -100 c29 -14 51
-59 41 -88 -3 -12 -23 -33 -43 -48 -20 -15 -55 -44 -78 -66 l-41 -38 -21 82
c-24 95 -23 96 48 140 51 32 59 34 94 18z m592 -193 c15 -11 20 -30 24 -92 l5
-78 52 -21 c108 -42 182 -132 183 -221 0 -61 -38 -88 -102 -71 -22 6 -30 16
-39 51 -11 43 -47 87 -81 99 -16 6 -18 -3 -18 -92 l0 -98 43 -12 c74 -23 128
-51 174 -94 67 -62 88 -107 88 -197 0 -84 -13 -115 -73 -182 -41 -45 -159
-108 -204 -108 l-28 0 0 -78 c0 -90 -16 -115 -71 -115 -56 0 -77 40 -78 154
-1 34 -3 37 -38 42 -52 9 -141 56 -184 98 -49 48 -69 90 -76 155 -8 73 12 104
67 104 45 0 63 -20 74 -80 4 -19 15 -45 25 -57 27 -32 91 -73 115 -73 20 0 21
4 19 146 -1 81 -5 150 -10 154 -4 3 -29 14 -55 24 -61 22 -132 86 -152 136
-53 132 16 264 165 317 l47 17 4 74 c3 63 7 77 27 93 28 23 70 25 97 5z"/>
<path d="M2301 4314 c-12 -15 -21 -34 -21 -44 0 -10 9 -29 21 -44 17 -21 29
-26 67 -26 129 0 342 -48 482 -107 384 -164 656 -501 747 -926 22 -103 24
-359 4 -462 -100 -509 -465 -891 -971 -1016 -127 -31 -397 -34 -530 -5 -534
115 -917 522 -1005 1066 -8 52 -15 119 -15 148 0 43 -5 58 -25 77 -31 32 -59
32 -90 0 -29 -28 -32 -71 -15 -220 26 -220 98 -415 228 -610 214 -324 548
-540 942 -611 114 -21 348 -20 465 0 449 80 840 369 1030 760 150 308 187 602
119 933 -28 138 -99 320 -166 428 -239 381 -630 630 -1058 675 -158 16 -185
14 -209 -16z"/>
<path d="M2306 3869 c-25 -20 -26 -23 -26 -138 l0 -118 -61 -17 c-132 -36
-220 -102 -268 -198 -56 -111 -38 -226 51 -323 55 -60 137 -107 223 -126 l55
-12 0 -274 c0 -257 -1 -274 -17 -269 -10 2 -34 8 -53 11 -48 10 -129 51 -164
83 -48 45 -86 112 -86 153 0 80 -73 117 -127 63 -23 -23 -25 -30 -19 -77 10
-76 57 -170 114 -225 76 -74 243 -152 326 -152 l26 0 0 -120 c0 -107 2 -122
20 -140 12 -12 33 -20 54 -20 56 0 66 25 66 158 0 82 3 114 13 116 6 2 44 10
82 20 152 36 288 136 343 253 23 49 27 71 27 143 -1 71 -5 95 -28 143 -54 117
-190 217 -342 253 -38 10 -76 18 -82 20 -10 3 -13 50 -13 194 0 220 -5 211 99
159 70 -35 121 -99 121 -151 0 -18 10 -39 26 -55 20 -20 31 -24 57 -19 43 8
57 30 57 91 0 132 -133 264 -307 305 l-53 12 0 117 c0 104 -2 120 -20 139 -26
28 -60 28 -94 1z m-26 -594 c0 -208 3 -202 -76 -169 -94 39 -153 120 -139 192
8 45 70 110 130 138 90 41 85 49 85 -161z m211 -361 c86 -26 143 -59 192 -114
56 -63 72 -118 52 -192 -24 -96 -146 -188 -277 -212 l-38 -7 0 264 c0 223 3
277 15 277 1 0 26 -7 56 -16z"/>
<path d="M4725 3000 c-42 -28 -59 -65 -45 -99 10 -26 66 -68 76 -58 8 7 11
168 4 172 -4 2 -19 -5 -35 -15z"/>
<path d="M4916 2663 c-3 -4 -6 -69 -6 -145 0 -117 2 -138 15 -138 31 0 81 28
113 63 50 57 41 129 -22 177 -29 22 -93 49 -100 43z"/>
</g>
</svg>
