<?xml version="1.0" standalone="no"?>
<!DOCTYPE svg PUBLIC "-//W3C//DTD SVG 20010904//EN"
 "http://www.w3.org/TR/2001/REC-SVG-20010904/DTD/svg10.dtd">
<svg version="1.0" xmlns="http://www.w3.org/2000/svg"
 width="738.000000pt" height="640.000000pt" viewBox="0 0 738.000000 640.000000"
 preserveAspectRatio="xMidYMid meet">

<g transform="translate(0.000000,640.000000) scale(0.100000,-0.100000)"
fill="#000000" stroke="none">
<path d="M5115 5559 c-22 -4 -62 -8 -88 -8 -27 -1 -46 -5 -43 -10 4 -5 -2 -7
-12 -4 -43 11 -599 -79 -879 -142 -84 -19 -155 -35 -158 -35 -3 0 -5 -85 -5
-189 0 -112 -4 -192 -10 -196 -11 -7 -16 14 -25 98 -12 103 -46 144 -72 86 -7
-17 -24 -31 -47 -39 -32 -10 -39 -9 -66 10 -16 12 -30 28 -30 36 0 8 -7 14
-15 14 -20 0 -41 -54 -50 -128 -4 -34 -11 -65 -16 -68 -6 -3 -9 65 -7 180 3
159 1 187 -12 191 -40 12 -457 78 -635 100 -349 42 -435 49 -435 32 0 -4 8 -7
17 -6 10 1 30 -3 46 -9 26 -11 27 -14 27 -91 0 -58 -4 -82 -15 -91 -17 -14
-20 -46 -5 -55 6 -3 10 -33 10 -65 0 -32 -4 -62 -10 -65 -12 -7 -14 -45 -2
-45 4 0 7 -72 7 -160 0 -88 -3 -160 -7 -160 -5 0 -8 -18 -8 -40 0 -22 -4 -40
-10 -40 -6 0 -10 -33 -10 -80 0 -73 -2 -80 -20 -80 -18 0 -20 -7 -20 -80 0
-68 3 -80 16 -80 15 0 16 -9 10 -61 -3 -34 -6 -70 -6 -80 0 -11 -4 -19 -10
-19 -5 0 -10 20 -10 45 0 33 -4 45 -15 45 -11 0 -15 -12 -15 -45 0 -25 5 -45
10 -45 6 0 10 -18 10 -40 0 -29 -4 -40 -15 -40 -8 0 -15 -7 -15 -16 0 -11 6
-14 20 -9 16 5 20 2 20 -15 0 -17 -4 -20 -20 -15 -19 6 -20 2 -20 -129 0 -114
-2 -136 -15 -136 -11 0 -15 11 -15 38 0 20 -4 43 -8 50 -5 6 -7 -22 -4 -63 2
-49 -1 -75 -7 -75 -6 0 -11 -7 -11 -15 0 -8 5 -15 10 -15 16 0 12 -37 -5 -44
-8 -3 -15 -12 -15 -19 0 -8 -11 -19 -25 -25 -29 -13 -33 -46 -7 -61 16 -10 16
-10 0 -11 -13 0 -18 -8 -18 -31 0 -35 -19 -109 -32 -123 -4 -6 -8 9 -8 32 0
31 -4 42 -15 42 -18 0 -18 -4 -5 -52 9 -30 8 -44 -6 -70 -9 -18 -22 -37 -28
-41 -8 -6 -7 -10 2 -14 33 -13 0 -63 -42 -63 -31 0 -35 -20 -6 -27 25 -7 26
-19 1 -26 -20 -5 -36 -62 -25 -91 5 -13 -2 -16 -44 -16 l-51 0 -3 -47 c-3 -44
-5 -48 -30 -51 -36 -4 -40 -42 -5 -42 30 0 36 -6 30 -31 -7 -24 -29 -25 -42
-1 -8 13 -10 8 -11 -25 0 -24 5 -43 13 -46 9 -4 9 -6 0 -6 -16 -1 -17 -41 -2
-41 6 0 4 -7 -5 -15 -8 -8 -24 -15 -35 -15 -17 0 -20 -8 -23 -47 -2 -26 -9
-48 -15 -51 -7 -2 -13 3 -13 12 0 25 -19 19 -30 -10 -6 -14 -19 -28 -30 -31
-11 -3 -20 -12 -20 -19 0 -16 -60 -20 -75 -5 -14 12 -104 20 -111 10 -3 -5 1
-19 8 -31 10 -20 13 -21 16 -5 4 20 22 23 22 3 0 -7 -6 -26 -14 -40 -11 -22
-15 -24 -20 -11 -9 26 -27 7 -20 -22 6 -21 3 -24 -12 -21 -10 2 -21 14 -25 28
-4 14 -7 19 -8 13 -1 -7 -7 -13 -15 -13 -7 0 -16 -9 -19 -20 -3 -13 -11 -18
-21 -14 -10 4 -16 23 -19 62 l-3 57 -2 -57 -2 -58 -40 0 c-29 0 -40 -4 -40
-15 0 -20 -66 -20 -86 -1 -17 18 -19 46 -2 46 6 0 9 2 7 5 -3 2 -15 2 -27 -2
-25 -6 -29 -28 -7 -37 8 -3 15 -15 15 -26 0 -31 -52 -24 -60 8 -5 21 -6 22
-27 7 -13 -9 -23 -25 -23 -36 0 -10 -7 -19 -15 -19 -8 0 -15 5 -15 10 0 6 -18
10 -40 10 -29 0 -40 -4 -40 -15 0 -11 -11 -15 -40 -15 -36 0 -40 -2 -40 -25 0
-21 -5 -25 -30 -25 -28 0 -30 2 -30 40 0 22 -4 40 -10 40 -5 0 -10 19 -10 41
l0 42 -67 -6 c-38 -3 -99 -2 -138 2 -38 5 -62 9 -52 10 10 0 17 9 17 20 0 19
-18 31 -47 31 -9 0 -33 16 -54 35 -22 19 -44 35 -49 35 -6 0 -10 -16 -10 -35
0 -34 -1 -35 -40 -35 -22 0 -40 5 -40 10 0 6 17 10 38 10 l37 1 -28 24 c-33
29 -47 32 -47 9 0 -14 -9 -16 -50 -12 -83 8 -83 28 0 36 27 2 50 8 50 13 0 5
-6 9 -14 9 -8 0 -17 6 -19 13 -4 8 -8 9 -14 1 -9 -13 -95 -24 -124 -17 -15 4
-19 14 -19 44 0 33 -3 39 -21 39 -20 0 -21 -3 -14 -80 5 -56 4 -80 -4 -80 -6
0 -11 17 -11 40 0 22 -4 40 -10 40 -5 0 -10 18 -10 40 0 37 -2 40 -26 40 -26
0 -26 1 -22 50 3 28 1 53 -3 56 -5 3 -9 -18 -9 -45 0 -38 -5 -56 -21 -72 -20
-20 -21 -20 -34 -2 -17 23 -25 15 -31 -33 -3 -26 -2 -33 4 -20 8 18 9 18 15 3
8 -22 43 -22 56 1 6 9 11 11 11 5 0 -7 -10 -23 -21 -34 -20 -20 -23 -20 -31
-5 -17 30 -28 16 -29 -36 -3 -112 -14 -107 -15 7 -1 66 -3 170 -5 230 l-3 110
-5 -105 c-4 -58 -2 -108 3 -111 4 -4 4 -8 -1 -10 -9 -4 -44 -1452 -43 -1767 0
-178 9 -195 122 -221 25 -6 246 -15 490 -21 1591 -36 2024 -50 2648 -86 316
-19 695 -15 991 10 355 29 1320 73 2124 96 504 14 774 29 837 45 34 9 61 24
76 42 l24 28 -6 540 c-3 297 -10 698 -16 890 -5 193 -10 413 -11 490 -1 153
-6 205 -20 205 -5 0 -9 -22 -9 -48 0 -50 -21 -95 -34 -74 -14 23 -26 12 -26
-23 0 -34 -1 -35 -40 -35 -38 0 -40 -2 -40 -30 0 -29 -2 -30 -43 -30 -37 0
-46 4 -55 25 -6 14 -16 25 -22 25 -16 0 -40 -56 -40 -95 0 -34 -1 -35 -40 -35
-22 0 -40 -4 -40 -10 0 -5 -18 -10 -40 -10 l-40 0 0 -41 0 -41 -80 6 c-44 3
-115 9 -157 12 l-78 5 -19 -40 c-11 -23 -22 -41 -25 -41 -7 0 -41 58 -41 71 0
5 7 9 15 9 11 0 15 11 15 40 0 33 -3 40 -19 40 -16 0 -18 -5 -14 -40 5 -32 2
-40 -10 -40 -8 0 -18 6 -21 13 -5 10 -7 10 -12 0 -3 -7 -17 -13 -30 -13 -21 0
-24 -4 -24 -40 0 -29 -4 -40 -15 -40 -8 0 -15 -7 -15 -15 0 -8 -7 -15 -15 -15
-8 0 -15 7 -15 15 0 11 -11 15 -40 15 l-40 0 0 40 c0 39 1 40 37 40 35 0 36 0
18 20 -10 11 -26 22 -36 25 -11 4 -19 13 -19 21 0 8 -4 14 -10 14 -5 0 -10 -9
-10 -20 0 -11 5 -20 10 -20 6 0 10 -9 10 -20 0 -18 -7 -20 -79 -20 -74 0 -79
1 -83 23 -4 21 -2 22 49 19 44 -3 53 -1 53 12 0 30 -22 44 -55 35 -40 -12 -45
-11 -45 5 0 7 -11 21 -25 30 -14 9 -25 21 -25 26 0 6 11 10 25 10 16 0 25 6
25 15 0 11 -11 15 -40 15 -29 0 -40 -4 -40 -15 0 -9 -9 -15 -25 -15 -22 0 -25
4 -25 40 0 34 -3 40 -21 40 -20 0 -21 -3 -14 -80 6 -70 5 -80 -9 -80 -12 0
-16 10 -16 40 0 33 -3 40 -19 40 -16 0 -21 8 -24 43 -3 36 -4 34 -5 -15 l-2
-58 -40 0 c-40 0 -44 5 -41 42 1 9 -7 19 -17 22 -11 4 -27 15 -37 26 -18 20
-17 20 18 20 21 0 37 5 37 10 0 6 -18 10 -40 10 -38 0 -40 2 -40 30 0 28 2 30
40 30 22 0 40 5 40 10 0 6 -18 10 -40 10 -28 0 -45 7 -60 23 -21 22 -22 22
-36 3 -17 -24 -28 -16 -19 13 7 24 60 30 68 9 3 -7 6 -3 6 10 1 19 -4 22 -39
22 -38 0 -40 2 -40 30 0 22 5 30 17 30 13 0 14 3 5 12 -9 9 -16 6 -30 -10 -11
-12 -31 -22 -46 -22 -14 0 -26 -4 -26 -10 0 -16 -27 -11 -34 6 -9 23 -8 24 14
24 25 0 26 27 1 35 -10 3 -26 14 -36 25 -18 20 -17 20 24 20 26 0 40 4 36 10
-3 6 -23 10 -43 10 -20 0 -42 4 -48 8 -24 17 -44 59 -44 94 0 31 4 38 20 38
17 0 20 -7 22 -42 l1 -43 6 45 c4 25 5 49 3 53 -2 4 -31 7 -63 6 -68 -3 -97
13 -66 36 11 7 25 11 33 8 15 -6 17 3 14 56 -1 19 4 37 12 42 9 7 10 11 1 17
-6 4 -13 21 -16 37 -3 24 -4 22 -6 -12 -1 -36 -4 -43 -21 -43 -17 0 -20 7 -20
40 0 29 -4 40 -15 40 -11 0 -15 11 -15 40 0 36 -2 40 -25 40 -22 0 -25 4 -25
40 0 29 4 40 15 40 8 0 15 5 15 10 0 6 -7 10 -15 10 -8 0 -15 9 -15 20 0 11 7
20 15 20 19 0 19 14 0 30 -13 11 -18 10 -29 -6 -8 -10 -17 -16 -21 -13 -3 4 1
14 10 22 8 9 15 21 15 28 0 6 8 18 18 25 16 13 16 13 0 14 -10 0 -18 -4 -18
-10 0 -5 -5 -10 -11 -10 -6 0 -9 6 -6 13 3 8 1 20 -4 28 -7 11 -9 11 -9 -3 0
-12 -8 -18 -25 -18 -30 0 -31 10 -5 40 24 27 25 40 5 40 -11 0 -15 11 -15 40
0 39 1 40 37 40 29 0 34 3 25 12 -7 7 -12 24 -12 39 0 21 -6 29 -22 32 l-23 4
23 8 c31 10 28 38 -7 53 -35 15 -52 52 -54 120 -2 44 1 52 18 55 18 3 17 4 -6
16 -44 22 -52 50 -52 181 0 93 -3 120 -14 120 -9 0 -13 -14 -14 -42 0 -29 -2
-37 -7 -23 -12 34 -2 225 11 225 7 1 23 10 36 20 l23 20 -23 20 -24 19 29 1
28 0 -23 20 -24 20 24 20 c22 19 22 20 3 20 -17 0 -21 7 -24 42 -2 32 -7 43
-21 44 -12 1 -13 1 -2 -3 10 -3 15 -17 15 -44 0 -35 -3 -39 -25 -39 -14 0 -25
5 -25 10 0 6 5 10 10 10 12 0 14 37 2 42 -4 2 -6 24 -4 51 3 38 8 47 23 47 21
0 24 16 9 54 -6 18 -6 26 1 26 8 0 9 25 4 80 -6 70 -5 80 9 80 12 0 16 10 16
40 0 22 5 40 10 40 6 0 10 5 10 10 0 6 -9 10 -20 10 -11 0 -20 5 -20 10 0 14
-28 12 -33 -2 -2 -7 -8 -10 -12 -6 -10 9 19 38 39 38 9 0 16 4 16 9 0 5 24 11
53 14 28 4 70 10 92 15 35 9 36 10 10 10 -16 0 -48 -4 -70 -9z m-2515 -79 c8
-5 11 -10 5 -10 -5 0 -17 5 -25 10 -8 5 -10 10 -5 10 6 0 17 -5 25 -10z m1236
-364 c-3 -14 -2 -27 2 -30 13 -8 7 -89 -7 -94 -11 -4 -10 -6 0 -13 9 -5 10 -9
3 -9 -9 0 -9 -12 -3 -42 6 -23 8 -47 5 -53 -2 -7 0 -17 5 -22 15 -15 26 -175
22 -325 -2 -93 0 -138 7 -138 7 0 8 -6 2 -17 -5 -10 -6 -56 -2 -103 3 -47 3
-87 0 -90 -10 -10 -11 -62 -1 -55 7 4 9 -16 5 -57 -11 -137 -11 -288 0 -289 6
0 5 -3 -2 -6 -6 -2 -10 -9 -6 -14 3 -5 -12 -9 -33 -10 -36 0 -37 -1 -13 -11
24 -10 24 -10 5 -18 -11 -5 -14 -9 -7 -9 6 -1 12 -10 12 -20 0 -11 4 -22 8
-25 4 -2 9 -24 11 -47 1 -23 4 -45 6 -49 10 -15 19 -366 16 -585 -2 -132 -4
-304 -4 -382 0 -81 -4 -143 -9 -143 -5 0 -6 -4 -3 -10 3 -5 -3 -10 -14 -10
-11 0 -23 -4 -26 -10 -3 -5 2 -10 12 -10 12 0 14 -3 6 -8 -8 -5 -8 -21 3 -62
22 -86 29 -179 28 -385 -1 -104 -3 -331 -4 -502 l-2 -313 -30 0 c-17 0 -27 -4
-23 -10 3 -5 16 -10 28 -10 21 -1 21 -1 4 -14 -15 -11 -15 -16 -5 -27 9 -10
13 -49 14 -124 1 -60 3 -119 5 -130 4 -19 -2 -20 -95 -23 l-98 -3 7 28 c8 32
67 93 90 93 10 0 30 -14 46 -31 16 -17 29 -25 29 -18 0 25 -43 59 -74 59 -35
0 -46 -6 -67 -37 -14 -20 -15 -14 -14 81 1 56 5 108 9 114 5 8 0 12 -13 12
-36 0 -32 18 7 25 34 7 35 8 15 16 -23 8 -23 9 -24 236 0 125 -1 248 -1 273
-1 311 5 695 12 719 8 29 7 31 -18 32 -25 1 -24 2 8 11 22 7 30 13 20 16 -19
7 -44 32 -32 32 5 0 9 120 9 290 0 163 -4 290 -9 290 -5 0 -6 6 -1 13 4 6 8
127 9 267 1 241 8 362 20 381 3 5 -7 9 -23 10 -25 1 -24 2 12 14 26 9 32 14
19 14 -18 1 -23 8 -25 39 -5 49 -1 1008 4 1093 2 37 7 72 11 78 5 7 -3 11 -21
12 -25 0 -26 1 -7 9 18 7 20 16 19 79 -2 66 0 70 15 56 9 -8 20 -12 25 -8 4 5
5 3 1 -4 -9 -17 37 -28 61 -15 10 6 27 20 37 31 25 27 30 26 22 -3z m1144
-166 c-19 -13 -30 -13 -30 0 0 6 10 10 23 10 18 0 19 -2 7 -10z m-1340 -14 c0
-3 -4 -8 -10 -11 -5 -3 -10 -1 -10 4 0 6 5 11 10 11 6 0 10 -2 10 -4z m240 -6
c0 -5 -2 -10 -4 -10 -3 0 -8 5 -11 10 -3 6 -1 10 4 10 6 0 11 -4 11 -10z
m1103 -27 c-7 -2 -19 -2 -25 0 -7 3 -2 5 12 5 14 0 19 -2 13 -5z m-1053 -634
c0 -392 -3 -548 -11 -543 -6 3 -8 17 -4 31 3 14 2 22 -2 20 -11 -7 -10 970 1
1011 5 17 10 32 12 32 2 0 4 -248 4 -551z m-330 -483 c-7 -7 -10 149 -10 475
0 267 3 489 8 493 4 4 8 -210 10 -475 1 -315 -1 -486 -8 -493z m1386 717 c-10
-10 -19 5 -10 18 6 11 8 11 12 0 2 -7 1 -15 -2 -18z m104 -363 c0 -5 -4 -10
-10 -10 -5 0 -10 5 -10 10 0 6 5 10 10 10 6 0 10 -4 10 -10z m-2540 -40 c-8
-5 -22 -9 -30 -9 -11 1 -10 3 3 6 9 2 17 12 17 21 0 13 3 13 12 4 10 -10 10
-15 -2 -22z m-13 -76 c-3 -3 -12 -4 -19 -1 -8 3 -5 6 6 6 11 1 17 -2 13 -5z
m2540 -106 c-3 -8 -6 -5 -6 6 -1 11 2 17 5 13 3 -3 4 -12 1 -19z m-1437 -222
c0 -3 -4 -8 -10 -11 -5 -3 -10 -1 -10 4 0 6 5 11 10 11 6 0 10 -2 10 -4z m240
-6 c0 -5 -2 -10 -4 -10 -3 0 -8 5 -11 10 -3 6 -1 10 4 10 6 0 11 -4 11 -10z
m-1430 -74 c0 -3 -4 -8 -10 -11 -5 -3 -10 -1 -10 4 0 6 5 11 10 11 6 0 10 -2
10 -4z m-20 -36 c0 -5 -9 -10 -20 -10 -11 0 -20 5 -20 10 0 6 9 10 20 10 11 0
20 -4 20 -10z m1500 -542 c0 -270 -2 -489 -4 -487 -16 15 -15 979 0 979 2 0 4
-221 4 -492z m-333 90 c-1 -40 -3 -8 -3 72 0 80 2 112 3 73 2 -40 2 -106 0
-145z m1690 110 c-2 -13 -4 -3 -4 22 0 25 2 35 4 23 2 -13 2 -33 0 -45z m103
-114 c0 -14 -3 -14 -15 -4 -8 7 -15 14 -15 16 0 2 7 4 15 4 8 0 15 -7 15 -16z
m-3160 -24 c0 -5 -9 -10 -20 -10 -11 0 -20 5 -20 10 0 6 9 10 20 10 11 0 20
-4 20 -10z m5058 -306 c2 -17 -3 -23 -25 -27 -36 -7 -39 -3 -23 28 16 30 44
29 48 -1z m-51 -76 c-3 -8 -6 -5 -6 6 -1 11 2 17 5 13 3 -3 4 -12 1 -19z
m-1317 -68 c0 -5 -4 -10 -10 -10 -5 0 -10 5 -10 10 0 6 5 10 10 10 6 0 10 -4
10 -10z m57 4 c-3 -3 -12 -4 -19 -1 -8 3 -5 6 6 6 11 1 17 -2 13 -5z m-4002
-64 c3 -5 -1 -10 -9 -10 -9 0 -16 5 -16 10 0 6 4 10 9 10 6 0 13 -4 16 -10z
m-1598 -6 c-3 -3 -12 -4 -19 -1 -8 3 -5 6 6 6 11 1 17 -2 13 -5z m1413 -30 c0
-14 -4 -23 -10 -19 -5 3 -10 15 -10 26 0 10 5 19 10 19 6 0 10 -12 10 -26z
m-1135 6 c8 -13 -20 -24 -41 -16 -20 8 -9 26 16 26 10 0 22 -5 25 -10z m1295
-20 c0 -5 -4 -10 -9 -10 -6 0 -13 5 -16 10 -3 6 1 10 9 10 9 0 16 -4 16 -10z
m4800 -10 c0 -5 -18 -10 -40 -10 -22 0 -40 5 -40 10 0 6 18 10 40 10 22 0 40
-4 40 -10z m-6145 -20 c3 -5 1 -10 -4 -10 -6 0 -11 5 -11 10 0 6 2 10 4 10 3
0 8 -4 11 -10z m65 0 c0 -5 -5 -10 -11 -10 -5 0 -7 5 -4 10 3 6 8 10 11 10 2
0 4 -4 4 -10z m1104 -5 c16 -12 17 -15 4 -15 -26 0 -48 11 -42 21 7 12 16 11
38 -6z m4879 -2 c-13 -2 -33 -2 -45 0 -13 2 -3 4 22 4 25 0 35 -2 23 -4z
m-516 -9 c-3 -3 -12 -4 -19 -1 -8 3 -5 6 6 6 11 1 17 -2 13 -5z m-4507 -54 c0
-11 -4 -20 -10 -20 -5 0 -10 9 -10 20 0 11 5 20 10 20 6 0 10 -9 10 -20z m164
4 c4 -9 4 -19 1 -22 -3 -3 -5 0 -5 6 0 7 -10 12 -22 12 -19 0 -20 2 -8 10 21
14 27 12 34 -6z m4556 -9 c0 -8 -7 -15 -15 -15 -8 0 -15 7 -15 15 0 8 7 15 15
15 8 0 15 -7 15 -15z m-5457 -15 c-14 -6 -32 -6 -45 0 -19 7 -15 9 22 9 37 0
41 -2 23 -9z m-113 -10 c0 -5 -7 -10 -15 -10 -8 0 -15 5 -15 10 0 6 7 10 15
10 8 0 15 -4 15 -10z m670 -30 c0 -33 -3 -40 -20 -40 -17 0 -20 7 -20 40 0 33
3 40 20 40 17 0 20 -7 20 -40z m140 34 c0 -3 -9 -17 -20 -31 -21 -27 -24 -23
-14 15 5 19 34 33 34 16z m-280 -34 c0 -11 -7 -20 -15 -20 -8 0 -15 9 -15 20
0 11 7 20 15 20 8 0 15 -9 15 -20z m-50 -30 c0 -5 -7 -10 -15 -10 -8 0 -15 5
-15 10 0 6 7 10 15 10 8 0 15 -4 15 -10z m-207 -67 c-13 -2 -33 -2 -45 0 -13
2 -3 4 22 4 25 0 35 -2 23 -4z"/>
<path d="M3755 1050 c22 -10 44 -14 49 -10 16 16 -4 27 -46 27 l-43 0 40 -17z"/>
<path d="M3758 902 c9 -6 6 -12 -14 -21 -26 -11 -26 -11 -13 6 13 16 12 17 -2
5 -18 -14 -32 -52 -19 -52 5 0 11 6 13 13 4 10 6 10 6 0 1 -7 12 -13 27 -13
22 0 25 3 21 32 -2 17 -10 33 -18 36 -11 3 -11 1 -1 -6z"/>
<path d="M2198 5523 c7 -3 16 -2 19 1 4 3 -2 6 -13 5 -11 0 -14 -3 -6 -6z"/>
<path d="M2438 5503 c7 -3 16 -2 19 1 4 3 -2 6 -13 5 -11 0 -14 -3 -6 -6z"/>
<path d="M2576 5401 c-4 -7 -5 -15 -2 -18 9 -9 19 4 14 18 -4 11 -6 11 -12 0z"/>
<path d="M3758 5203 c7 -3 16 -2 19 1 4 3 -2 6 -13 5 -11 0 -14 -3 -6 -6z"/>
<path d="M3732 5153 c4 -22 43 -25 43 -3 0 8 -11 16 -23 18 -19 3 -23 0 -20
-15z"/>
<path d="M4990 5115 c0 -16 16 -20 24 -6 3 5 -1 11 -9 15 -9 3 -15 0 -15 -9z"/>
<path d="M5071 4484 c0 -11 3 -14 6 -6 3 7 2 16 -1 19 -3 4 -6 -2 -5 -13z"/>
<path d="M5105 4250 c3 -5 8 -10 11 -10 2 0 4 5 4 10 0 6 -5 10 -11 10 -5 0
-7 -4 -4 -10z"/>
<path d="M2350 3980 c0 -5 5 -10 10 -10 6 0 10 5 10 10 0 6 -4 10 -10 10 -5 0
-10 -4 -10 -10z"/>
<path d="M2380 3771 c0 -6 5 -13 10 -16 6 -3 10 1 10 9 0 9 -4 16 -10 16 -5 0
-10 -4 -10 -9z"/>
<path d="M5214 3749 c-3 -6 -1 -16 5 -22 8 -8 11 -5 11 11 0 24 -5 28 -16 11z"/>
<path d="M2350 3685 c0 -8 6 -15 14 -15 8 0 17 -6 19 -12 3 -7 6 -1 6 15 1 21
-4 27 -19 27 -11 0 -20 -7 -20 -15z"/>
<path d="M91 3554 c0 -11 3 -14 6 -6 3 7 2 16 -1 19 -3 4 -6 -2 -5 -13z"/>
<path d="M5420 3365 c0 -8 5 -15 10 -15 6 0 10 7 10 15 0 8 -4 15 -10 15 -5 0
-10 -7 -10 -15z"/>
<path d="M82 3165 c0 -16 2 -22 5 -12 2 9 2 23 0 30 -3 6 -5 -1 -5 -18z"/>
<path d="M7303 3100 c0 -25 2 -35 4 -22 2 12 2 32 0 45 -2 12 -4 2 -4 -23z"/>
<path d="M82 3085 c0 -16 2 -22 5 -12 2 9 2 23 0 30 -3 6 -5 -1 -5 -18z"/>
<path d="M86 3017 c-5 -15 -6 -31 -2 -34 11 -11 18 5 14 34 l-4 28 -8 -28z"/>
<path d="M5870 2889 c0 -5 5 -7 10 -4 6 3 10 8 10 11 0 2 -4 4 -10 4 -5 0 -10
-5 -10 -11z"/>
<path d="M5935 2830 c-3 -5 -1 -10 4 -10 6 0 11 5 11 10 0 6 -2 10 -4 10 -3 0
-8 -4 -11 -10z"/>
<path d="M102 2795 c0 -16 2 -22 5 -12 2 9 2 23 0 30 -3 6 -5 -1 -5 -18z"/>
<path d="M352 2752 c-2 -70 -1 -72 18 -62 14 8 26 8 40 0 18 -10 20 -8 20 21
0 31 0 32 -20 14 -28 -25 -48 -5 -53 53 -2 35 -4 28 -5 -26z"/>
<path d="M6815 2810 c3 -5 8 -10 11 -10 2 0 4 5 4 10 0 6 -5 10 -11 10 -5 0
-7 -4 -4 -10z"/>
<path d="M6700 2750 c0 -5 5 -10 10 -10 6 0 10 5 10 10 0 6 -4 10 -10 10 -5 0
-10 -4 -10 -10z"/>
<path d="M6750 2750 c0 -5 5 -10 11 -10 5 0 7 5 4 10 -3 6 -8 10 -11 10 -2 0
-4 -4 -4 -10z"/>
<path d="M1935 2740 c-3 -5 -1 -10 4 -10 6 0 11 5 11 10 0 6 -2 10 -4 10 -3 0
-8 -4 -11 -10z"/>
<path d="M460 2730 c0 -5 5 -10 10 -10 6 0 10 5 10 10 0 6 -4 10 -10 10 -5 0
-10 -4 -10 -10z"/>
<path d="M6880 2700 c0 -29 4 -40 15 -40 11 0 15 11 15 40 0 29 -4 40 -15 40
-11 0 -15 -11 -15 -40z"/>
<path d="M6030 2705 c0 -18 4 -18 50 0 l35 13 -42 1 c-32 1 -43 -3 -43 -14z"/>
<path d="M1839 2689 c-17 -14 -20 -22 -11 -25 6 -3 12 -14 12 -25 0 -10 7 -19
15 -19 10 0 15 11 15 35 0 19 5 35 10 35 6 0 10 5 10 10 0 17 -26 11 -51 -11z"/>
<path d="M6590 2681 c0 -12 5 -21 10 -21 6 0 10 6 10 14 0 8 -4 18 -10 21 -5
3 -10 -3 -10 -14z"/>
<path d="M674 2665 c3 -9 6 -32 6 -51 0 -24 5 -34 15 -34 25 0 20 72 -6 89
-19 11 -21 11 -15 -4z"/>
<path d="M1653 2666 c-22 -10 -32 -36 -15 -36 8 0 46 41 40 44 -2 1 -13 -3
-25 -8z"/>
<path d="M6270 2620 c0 -29 4 -40 15 -40 11 0 15 11 15 40 0 29 -4 40 -15 40
-11 0 -15 -11 -15 -40z"/>
<path d="M6750 2635 c0 -22 -4 -25 -40 -25 -29 0 -40 -4 -40 -15 0 -12 14 -15
70 -15 l70 0 0 40 c0 38 -2 40 -30 40 -25 0 -30 -4 -30 -25z"/>
<path d="M1645 2570 c3 -5 10 -10 16 -10 5 0 9 5 9 10 0 6 -7 10 -16 10 -8 0
-12 -4 -9 -10z"/>
<path d="M830 2525 c0 -22 4 -25 38 -25 l37 1 -28 24 c-36 32 -47 31 -47 0z"/>
<path d="M990 2515 c0 -8 5 -15 10 -15 6 0 10 -18 10 -40 0 -38 2 -40 30 -40
28 0 30 2 30 40 0 32 -4 40 -19 40 -10 0 -24 7 -31 15 -7 8 -16 15 -21 15 -5
0 -9 -7 -9 -15z"/>
</g>
</svg>
