<?xml version="1.0" standalone="no"?>
<!DOCTYPE svg PUBLIC "-//W3C//DTD SVG 20010904//EN"
 "http://www.w3.org/TR/2001/REC-SVG-20010904/DTD/svg10.dtd">
<svg version="1.0" xmlns="http://www.w3.org/2000/svg"
 width="750.000000pt" height="651.000000pt" viewBox="0 0 750.000000 651.000000"
 preserveAspectRatio="xMidYMid meet">

<g transform="translate(0.000000,651.000000) scale(0.100000,-0.100000)"
fill="#000000" stroke="none">
<path d="M4899 5836 c-2 -2 -49 -7 -104 -11 -161 -11 -240 -29 -485 -112 -139
-48 -215 -79 -334 -139 -37 -20 -75 -33 -82 -30 -8 3 -14 2 -14 -3 0 -17 81
-41 138 -41 59 0 92 12 312 110 190 85 369 141 624 195 54 12 75 20 65 26 -14
9 -112 13 -120 5z"/>
<path d="M5870 5497 c0 -10 12 -49 27 -87 19 -50 40 -82 72 -113 l45 -42 -27
37 c-15 20 -47 78 -72 129 -25 51 -45 85 -45 76z"/>
<path d="M1284 5380 c-27 -11 -71 -70 -77 -106 -3 -16 -8 -43 -12 -59 -9 -41
19 -156 51 -210 32 -55 88 -111 137 -136 50 -26 47 -17 -5 14 -114 67 -182
210 -154 323 7 32 69 98 80 87 3 -4 6 -1 6 6 0 7 5 9 10 6 6 -3 10 -2 10 3 0
5 26 10 57 11 31 1 59 3 61 6 5 5 -73 42 -113 54 -17 4 -39 5 -51 1z"/>
<path d="M1990 5056 c29 -17 40 -20 40 -8 0 5 -6 9 -12 9 -7 0 -22 4 -33 7
-13 5 -12 2 5 -8z"/>
<path d="M1691 5042 c9 -15 17 -18 25 -11 8 7 14 0 18 -26 4 -20 10 -44 14
-53 5 -16 4 -15 -12 0 -9 10 -16 25 -14 34 2 9 -4 19 -12 21 -12 4 -12 3 -1
-5 8 -6 9 -12 3 -16 -5 -3 -9 -17 -9 -31 0 -20 2 -23 12 -15 20 17 12 -35 -9
-55 -9 -9 -16 -14 -16 -11 0 3 -21 -14 -46 -38 -25 -25 -43 -49 -39 -55 8 -13
0 -14 -23 -2 -9 5 -44 21 -77 37 -33 15 -63 29 -67 31 -5 2 -8 2 -8 -1 0 -2
26 -19 58 -37 121 -69 176 -118 252 -224 24 -33 44 -62 46 -64 5 -6 69 37 89
59 20 22 195 130 211 130 6 0 32 11 60 24 54 26 134 47 183 48 18 1 35 7 38
15 3 7 13 13 22 13 14 0 14 -2 1 -10 -12 -8 -10 -10 9 -10 16 0 22 4 17 15 -4
10 1 15 15 15 14 0 19 -5 16 -14 -4 -10 -1 -13 9 -9 7 3 14 9 14 13 0 4 29 10
65 13 36 4 83 12 106 18 60 18 103 89 53 89 -8 0 -14 4 -14 8 0 7 -57 32 -74
32 -4 0 -4 -10 -1 -21 4 -12 3 -19 -1 -17 -5 3 -33 2 -62 -2 -42 -5 -55 -4
-59 8 -5 11 -7 11 -15 0 -7 -10 -10 -10 -19 5 -5 9 -21 17 -35 17 -14 0 -22
-4 -19 -10 3 -6 -1 -7 -10 -3 -13 5 -14 7 -3 14 19 13 -7 28 -52 31 -60 3 -65
4 -78 11 -8 6 -12 2 -12 -12 0 -12 5 -21 12 -21 6 0 9 -2 6 -5 -3 -3 -16 -1
-29 4 -13 5 -18 10 -11 10 27 2 9 29 -27 39 -37 12 -89 16 -63 5 6 -2 12 -9
12 -15 0 -6 -7 -7 -16 -4 -8 3 -12 2 -9 -4 8 -13 4 -13 -47 4 -76 25 -126 37
-190 42 -35 3 -66 8 -70 10 -4 2 -10 0 -13 -6 -7 -11 -84 -8 -104 4 -9 6 -9 3
0 -12z m479 -43 c0 -6 -4 -7 -10 -4 -5 3 -10 11 -10 16 0 6 5 7 10 4 6 -3 10
-11 10 -16z m-393 5 c-3 -3 -12 -4 -19 -1 -8 3 -5 6 6 6 11 1 17 -2 13 -5z
m513 -34 c0 -5 -2 -10 -4 -10 -3 0 -8 5 -11 10 -3 6 -1 10 4 10 6 0 11 -4 11
-10z"/>
<path d="M2076 5035 c-3 -8 -1 -15 4 -15 6 0 10 7 10 15 0 8 -2 15 -4 15 -2 0
-6 -7 -10 -15z"/>
<path d="M1695 4910 c4 -6 11 -8 16 -5 14 9 11 15 -7 15 -8 0 -12 -5 -9 -10z"/>
<path d="M2090 4690 c8 -5 20 -10 25 -10 6 0 3 5 -5 10 -8 5 -19 10 -25 10 -5
0 -3 -5 5 -10z"/>
<path d="M2055 4679 c-5 -5 -25 -21 -43 -35 -35 -28 -77 -99 -67 -114 3 -4 18
-11 35 -15 16 -3 48 -20 70 -36 23 -17 44 -29 46 -26 2 2 -14 17 -36 32 -22
15 -40 30 -40 33 0 3 3 3 6 -1 4 -3 15 4 25 16 10 12 18 17 19 12 0 -6 -6 -17
-12 -25 -11 -12 -10 -12 3 -2 9 6 19 8 24 4 4 -4 4 3 1 15 -6 18 -1 23 29 34
34 13 47 29 23 29 -7 0 -5 5 6 11 14 9 21 8 28 -2 8 -11 8 -10 4 4 -3 11 2 27
14 39 26 29 25 38 -5 38 -14 0 -25 -3 -25 -8 0 -8 -90 -42 -113 -42 -8 0 -18
-6 -20 -12 -3 -8 -6 -6 -6 5 -1 9 5 17 12 17 17 1 50 27 40 33 -4 2 -12 1 -18
-4z m-45 -69 c0 -5 -5 -10 -11 -10 -5 0 -7 5 -4 10 3 6 8 10 11 10 2 0 4 -4 4
-10z"/>
<path d="M3080 4573 c0 -6 9 -21 21 -34 l20 -24 -17 30 c-24 39 -24 40 -24 28z"/>
<path d="M3210 4473 c0 -3 27 -30 59 -60 84 -76 207 -221 286 -338 37 -55 70
-102 73 -105 15 -15 -107 202 -137 245 -70 96 -139 175 -190 215 -47 38 -91
58 -91 43z"/>
<path d="M2039 3919 c-27 -27 -58 -97 -59 -129 0 -30 22 -65 51 -81 30 -16 66
12 95 74 31 66 31 107 1 135 -29 28 -61 28 -88 1z"/>
<path d="M3760 3670 c13 -19 37 -50 54 -68 17 -18 30 -35 29 -38 -2 -2 -3 -10
-3 -16 0 -9 4 -8 10 2 9 13 10 13 10 0 0 -18 100 -163 107 -156 3 2 -2 17 -10
33 -8 15 -22 46 -31 68 -14 33 -14 37 -1 21 8 -11 15 -17 15 -13 0 4 14 1 30
-8 56 -29 30 -5 -53 48 -45 30 -104 78 -131 108 -33 37 -41 43 -26 19z"/>
<path d="M2536 3630 c-26 -31 -46 -87 -46 -128 0 -34 52 -82 87 -82 60 0 124
115 101 182 -22 62 -100 77 -142 28z"/>
<path d="M1437 2867 c-16 -18 -34 -41 -40 -52 -19 -33 -14 -211 7 -280 26 -88
81 -196 116 -230 l30 -29 0 26 c0 13 -11 38 -25 54 -27 31 -47 110 -43 166 2
31 5 35 25 33 31 -3 36 -9 50 -58 15 -57 17 -15 2 90 -11 86 -31 128 -56 119
-11 -5 -14 -2 -9 10 4 9 1 23 -5 31 -10 11 -9 17 3 29 13 14 18 12 47 -12 18
-15 30 -33 27 -40 -3 -7 -1 -16 4 -19 5 -3 9 -13 9 -23 2 -44 3 -59 11 -87 5
-16 11 -46 14 -65 6 -48 24 -137 35 -182 11 -48 72 -169 87 -175 7 -2 15 -16
19 -30 8 -35 42 -77 50 -63 3 5 -3 20 -14 32 -12 12 -18 24 -15 27 4 3 9 0 11
-6 3 -7 9 -13 15 -13 13 0 74 -62 71 -72 -4 -11 14 -10 22 1 3 5 1 12 -3 15
-5 3 -8 18 -6 33 6 49 6 164 1 170 -3 3 -2 16 3 29 7 16 6 24 -1 24 -7 0 -9
11 -6 30 4 17 2 32 -5 36 -7 4 -8 3 -4 -4 4 -7 1 -12 -7 -12 -16 0 -19 30 -3
30 6 0 4 6 -4 13 -27 21 -60 69 -54 78 3 5 -1 9 -10 9 -8 0 -17 6 -19 13 -4
10 -6 10 -6 0 -1 -7 -6 -13 -12 -13 -6 0 -9 7 -5 15 3 8 0 15 -7 15 -7 0 -21
18 -31 40 -11 22 -22 40 -26 40 -9 0 -25 41 -35 83 -4 21 -10 27 -22 23 -13
-5 -14 -4 -3 9 11 13 9 19 -9 39 -12 13 -21 27 -20 32 4 25 -3 44 -16 44 -8 0
-15 5 -15 10 0 6 -7 10 -15 10 -8 0 -15 6 -15 14 0 13 -31 27 -55 25 -5 -1
-23 -15 -38 -32z m138 -47 c3 -5 1 -10 -4 -10 -6 0 -11 5 -11 10 0 6 2 10 4
10 3 0 8 -4 11 -10z m-95 -130 c0 -5 -2 -10 -4 -10 -3 0 -8 5 -11 10 -3 6 -1
10 4 10 6 0 11 -4 11 -10z"/>
<path d="M1630 2764 c0 -6 7 -19 16 -30 14 -18 14 -18 3 6 -14 31 -19 36 -19
24z"/>
<path d="M2158 2346 c31 -36 50 -71 71 -134 19 -57 20 -63 5 -113 -9 -30 -21
-60 -27 -67 -5 -7 -11 -29 -12 -48 0 -20 -8 -40 -16 -45 -12 -7 -11 -9 2 -9
32 0 79 13 74 20 -3 5 1 14 8 22 18 19 38 68 32 79 -4 5 -1 9 5 9 6 0 8 5 5
10 -4 6 -8 27 -10 48 -2 21 -9 51 -16 67 -7 17 -13 33 -13 37 -1 3 -4 9 -8 13
-4 4 -4 14 -1 23 5 12 2 14 -11 9 -15 -6 -17 -3 -13 13 3 13 0 20 -8 20 -8 0
-17 5 -21 12 -4 7 -3 8 4 4 7 -4 12 -2 12 4 0 6 -11 15 -25 20 -14 5 -25 12
-25 14 0 3 7 2 17 -1 10 -4 14 -2 10 4 -4 6 -18 11 -32 11 -26 0 -26 -1 -7
-22z"/>
<path d="M2126 2278 c10 -91 23 -170 28 -175 2 -2 12 0 23 6 10 5 26 12 36 15
15 5 17 12 11 43 -14 82 -62 163 -97 163 -4 0 -5 -24 -1 -52z"/>
<path d="M1800 2050 c0 -5 5 -10 11 -10 5 0 7 5 4 10 -3 6 -8 10 -11 10 -2 0
-4 -4 -4 -10z"/>
<path d="M1870 1996 c0 -2 8 -10 18 -17 15 -13 16 -12 3 4 -13 16 -21 21 -21
13z"/>
<path d="M5162 1885 c-38 -42 -78 -92 -88 -111 -18 -33 -18 -36 -2 -47 9 -7
25 -18 35 -25 10 -7 1 -4 -19 7 l-38 20 -16 -30 c-12 -24 -13 -30 -2 -27 7 3
51 -6 98 -18 83 -23 84 -23 60 -3 l-25 20 30 -15 c37 -17 146 -46 171 -45 11
0 0 7 -24 16 -77 27 -122 89 -143 194 -8 38 -15 56 -23 52 -6 -4 6 14 27 40
57 70 38 57 -41 -28z"/>
<path d="M2452 1749 c-23 -17 -66 -38 -95 -48 -42 -15 -48 -19 -31 -25 11 -3
42 -26 68 -51 27 -25 52 -42 56 -40 5 3 10 1 12 -5 1 -5 23 -20 48 -34 87 -49
145 -80 150 -81 3 0 25 -12 50 -26 116 -67 138 -79 180 -101 25 -12 54 -31 65
-41 11 -11 35 -26 54 -34 37 -16 94 -53 99 -65 2 -5 8 -8 12 -8 5 0 49 -25 99
-55 50 -30 95 -55 101 -55 5 0 10 -4 10 -8 0 -4 16 -14 36 -21 20 -7 44 -21
53 -30 28 -28 251 -132 370 -172 96 -33 94 -32 86 -19 -3 5 18 1 48 -9 29 -10
73 -21 98 -25 44 -6 44 -6 -16 17 -33 12 -73 36 -90 52 -30 31 -80 115 -68
115 4 0 2 5 -5 12 -7 7 -12 22 -12 34 0 13 -4 25 -10 29 -5 3 -7 12 -4 19 3 8
1 17 -5 21 -6 3 -11 17 -11 30 0 13 -4 27 -10 30 -5 3 -10 15 -10 26 0 23 -43
111 -62 126 -7 6 -30 16 -51 23 -48 15 -96 -1 -98 -34 -3 -68 17 -157 55 -235
11 -25 47 -71 79 -104 32 -32 50 -54 40 -49 -29 16 -108 103 -137 150 -15 24
-43 89 -62 145 -43 122 -74 184 -107 215 -17 16 -88 42 -223 83 -286 85 -501
166 -649 243 -33 17 -62 32 -65 33 -3 1 -24 -12 -48 -28z"/>
</g>
</svg>
