<?xml version="1.0" standalone="no"?>
<!DOCTYPE svg PUBLIC "-//W3C//DTD SVG 20010904//EN"
 "http://www.w3.org/TR/2001/REC-SVG-20010904/DTD/svg10.dtd">
<svg version="1.0" xmlns="http://www.w3.org/2000/svg"
 width="50.000000pt" height="39.000000pt" viewBox="0 0 50.000000 39.000000"
 preserveAspectRatio="xMidYMid meet">

<g transform="translate(0.000000,39.000000) scale(0.100000,-0.100000)"
fill="#000000" stroke="none">
<path d="M355 368 c-17 -13 -51 -70 -87 -145 -33 -68 -63 -123 -66 -122 -4 0
-24 23 -45 50 -39 51 -57 56 -57 15 0 -26 46 -99 88 -139 27 -26 29 -26 44
-10 8 10 34 65 58 123 23 58 58 133 77 168 40 71 35 97 -12 60z"/>
</g>
</svg>
